<?xml version="1.0" encoding="UTF-8"?>
<!DOCTYPE svg PUBLIC "-//W3C//DTD SVG 1.1//EN" "http://www.w3.org/Graphics/SVG/1.1/DTD/svg11.dtd">
<!-- Creator: CorelDRAW -->
<svg xmlns="http://www.w3.org/2000/svg" xml:space="preserve" width="23.0611mm" height="23.0504mm" version="1.1" style="shape-rendering:geometricPrecision; text-rendering:geometricPrecision; image-rendering:optimizeQuality; fill-rule:evenodd; clip-rule:evenodd"
viewBox="0 0 273.33 273.2"
 xmlns:xlink="http://www.w3.org/1999/xlink">
 <defs>
  <style type="text/css">
   <![CDATA[
    .fil0 {fill:white}
    .fil6 {fill:url(#id0)}
    .fil5 {fill:url(#id1)}
    .fil3 {fill:url(#id2)}
    .fil1 {fill:url(#id3)}
    .fil2 {fill:url(#id4)}
    .fil7 {fill:url(#id5)}
    .fil4 {fill:url(#id6)}
   ]]>
  </style>
  <linearGradient id="id0" gradientUnits="userSpaceOnUse" x1="45.29" y1="188.64" x2="123.92" y2="188.64">
   <stop offset="0" style="stop-opacity:1; stop-color:#7C72FF"/>
   <stop offset="1" style="stop-opacity:1; stop-color:#6D64F4"/>
  </linearGradient>
  <linearGradient id="id1" gradientUnits="userSpaceOnUse" xlink:href="#id0" x1="45.29" y1="84.71" x2="123.92" y2="84.71">
  </linearGradient>
  <linearGradient id="id2" gradientUnits="userSpaceOnUse" xlink:href="#id0" x1="111.36" y1="136.61" x2="161.97" y2="136.61">
  </linearGradient>
  <linearGradient id="id3" gradientUnits="userSpaceOnUse" xlink:href="#id0" x1="-0" y1="136.63" x2="273.33" y2="136.63">
  </linearGradient>
  <linearGradient id="id4" gradientUnits="userSpaceOnUse" xlink:href="#id0" x1="30.21" y1="136.62" x2="243.1" y2="136.62">
  </linearGradient>
  <linearGradient id="id5" gradientUnits="userSpaceOnUse" xlink:href="#id0" x1="149.26" y1="188.64" x2="227.88" y2="188.64">
  </linearGradient>
  <linearGradient id="id6" gradientUnits="userSpaceOnUse" xlink:href="#id0" x1="149.26" y1="84.71" x2="227.88" y2="84.71">
  </linearGradient>
 </defs>
 <g id="Capa_x0020_1">
  <metadata id="CorelCorpID_0Corel-Layer"/>
  <g>
   <path id="Fill-4" class="fil0" d="M136.67 241.1c-57.74,0 -104.54,-46.78 -104.54,-104.49 0,-57.71 46.8,-104.49 104.54,-104.49 57.73,0 104.53,46.78 104.53,104.49 0,57.71 -46.79,104.49 -104.53,104.49l0 0zm0 -239.18c-74.43,0 -134.75,60.3 -134.75,134.68 0,74.38 60.32,134.68 134.75,134.68 74.42,0 134.74,-60.3 134.74,-134.68 0,-74.39 -60.32,-134.68 -134.74,-134.68z"/>
  </g>
  <path id="Fill-6" class="fil1" d="M136.67 0c-75.36,0 -136.67,61.28 -136.67,136.6l0 0c0,75.32 61.31,136.6 136.67,136.6l0 0c75.35,0 136.66,-61.28 136.66,-136.6l0 0c0,-75.32 -61.31,-136.6 -136.66,-136.6zm-132.83 136.6c0,-73.2 59.59,-132.76 132.83,-132.76l0 0c73.24,0 132.82,59.56 132.82,132.76l0 0c0,73.21 -59.58,132.76 -132.82,132.76l0 0c-73.24,0 -132.83,-59.56 -132.83,-132.76l0 0zm26.37 0c0,58.68 47.76,106.41 106.46,106.41l0 0c58.7,0 106.45,-47.74 106.45,-106.41l0 0c0,-58.67 -47.75,-106.41 -106.45,-106.41l0 0c-58.7,0 -106.46,47.74 -106.46,106.41l0 0zm3.84 0c0,-56.56 46.03,-102.57 102.62,-102.57l0 0c56.58,0 102.61,46.01 102.61,102.57l0 0c0,56.56 -46.03,102.58 -102.61,102.58l0 0c-56.58,0 -102.62,-46.01 -102.62,-102.58l0 0z"/>
  <path id="Fill-9" class="fil0" d="M151.18 226.01l0 -56.63c8.08,-3.57 14.56,-10.05 18.12,-18.12l56.66 0c-6.12,38.3 -36.47,68.63 -74.79,74.75l0 0zm-37.9 -89.41c0,-12.91 10.47,-23.37 23.38,-23.37 12.91,0 23.38,10.46 23.38,23.37 0,12.91 -10.47,23.37 -23.38,23.37 -12.91,0 -23.38,-10.46 -23.38,-23.37l0 0zm8.72 89.41c-38.32,-6.12 -68.66,-36.45 -74.79,-74.75l56.66 0c3.57,8.07 10.05,14.55 18.13,18.12l0 56.63zm0 -178.67l0 56.63c-8.08,3.57 -14.56,10.05 -18.13,18.12l-56.66 0c6.12,-38.3 36.47,-68.63 74.79,-74.75l0 0zm29.18 0c38.32,6.12 68.66,36.45 74.79,74.75l-56.66 0c-3.56,-8.07 -10.05,-14.55 -18.12,-18.12l0 -56.63zm-14.51 -15.23c-57.74,0 -104.54,46.78 -104.54,104.49 0,57.71 46.8,104.49 104.54,104.49 57.73,0 104.53,-46.79 104.53,-104.49 0,-57.71 -46.8,-104.49 -104.53,-104.49l0 0z"/>
  <path id="Fill-11" class="fil2" d="M30.21 136.6c0,58.68 47.76,106.41 106.46,106.41l0 0c58.7,0 106.45,-47.74 106.45,-106.41l0 0c0,-58.67 -47.75,-106.41 -106.45,-106.41l0 0c-58.7,0 -106.46,47.74 -106.46,106.41l0 0zm3.84 0c0,-56.56 46.03,-102.57 102.62,-102.57l0 0c56.58,0 102.61,46.01 102.61,102.57l0 0c0,56.56 -46.03,102.58 -102.61,102.58l0 0c-56.58,0 -102.62,-46.01 -102.62,-102.58l0 0zm115.89 -90.73c-0.43,0.37 -0.68,0.9 -0.68,1.46l0 0 0 56.63c0,0.76 0.45,1.45 1.15,1.76l0 0c7.67,3.39 13.76,9.47 17.14,17.14l0 0c0.3,0.69 0.99,1.14 1.76,1.14l0 0 56.66 0c0.56,0 1.1,-0.25 1.46,-0.68l0 0c0.36,-0.43 0.52,-0.99 0.43,-1.55l0 0c-6.3,-39.37 -36.99,-70.05 -76.38,-76.35l0 0c-0.1,-0.01 -0.19,-0.02 -0.29,-0.02l0 0c-0.46,0 -0.9,0.16 -1.26,0.46l0 0zm3.16 56.87l0 -53.13c35.94,6.68 63.91,34.64 70.58,70.55l0 0 -53.15 0c-3.68,-7.63 -9.8,-13.75 -17.43,-17.42l0 0zm-31.4 -57.31c-39.39,6.3 -70.09,36.98 -76.38,76.35l0 0c-0.09,0.55 0.07,1.12 0.43,1.55l0 0c0.37,0.43 0.9,0.68 1.46,0.68l0 0 56.66 0c0.76,0 1.45,-0.45 1.75,-1.14l0 0c3.39,-7.67 9.49,-13.75 17.15,-17.14l0 0c0.69,-0.31 1.14,-0.99 1.14,-1.76l0 0 0 -56.63c0,-0.56 -0.25,-1.1 -0.67,-1.46l0 0c-0.35,-0.3 -0.8,-0.46 -1.26,-0.46l0 0c-0.1,0 -0.19,0.01 -0.29,0.02l0 0zm-1.62 4.18l0 53.13c-7.63,3.67 -13.75,9.79 -17.44,17.42l0 0 -53.15 0c6.68,-35.92 34.65,-63.88 70.59,-70.55l0 0zm-8.72 86.98c0,13.95 11.35,25.29 25.3,25.29l0 0c13.95,0 25.3,-11.35 25.3,-25.29l0 0c0,-13.94 -11.35,-25.29 -25.3,-25.29l0 0c-13.95,0 -25.3,11.35 -25.3,25.29l0 0zm3.84 0c0,-11.83 9.63,-21.45 21.46,-21.45l0 0c11.83,0 21.46,9.62 21.46,21.45l0 0c0,11.83 -9.62,21.45 -21.46,21.45l0 0c-11.84,0 -21.46,-9.62 -21.46,-21.45l0 0zm54.1 12.74c-0.76,0 -1.45,0.45 -1.76,1.14l0 0c-3.39,7.67 -9.48,13.75 -17.14,17.14l0 0c-0.7,0.31 -1.15,1 -1.15,1.76l0 0 0 56.63c0,0.56 0.25,1.1 0.68,1.46l0 0c0.35,0.29 0.79,0.46 1.24,0.46l0 0c0.1,0 0.2,-0.01 0.3,-0.02l0 0c39.39,-6.3 70.08,-36.98 76.38,-76.35l0 0c0.09,-0.55 -0.07,-1.12 -0.43,-1.55l0 0c-0.37,-0.43 -0.9,-0.68 -1.46,-0.68l0 0 -56.66 0zm-16.2 21.27c7.63,-3.68 13.75,-9.8 17.43,-17.43l0 0 53.15 0c-6.67,35.92 -34.65,63.88 -70.58,70.56l0 0 0 -53.13zm-105.89 -21.27c-0.56,0 -1.1,0.25 -1.46,0.68l0 0c-0.36,0.43 -0.52,0.99 -0.43,1.55l0 0c6.3,39.37 36.99,70.05 76.38,76.35l0 0c0.1,0.01 0.2,0.02 0.3,0.02l0 0c0.45,0 0.9,-0.16 1.25,-0.46l0 0c0.43,-0.37 0.67,-0.9 0.67,-1.46l0 0 0 -56.63c0,-0.76 -0.45,-1.45 -1.14,-1.76l0 0c-7.66,-3.38 -13.76,-9.47 -17.15,-17.14l0 0c-0.31,-0.69 -0.99,-1.14 -1.75,-1.14l0 0 -56.66 0zm2.28 3.84l53.15 0c3.68,7.63 9.81,13.75 17.44,17.43l0 0 0 53.13c-35.94,-6.68 -63.91,-34.64 -70.59,-70.56l0 0z"/>
  <path id="Fill-14" class="fil0" d="M136.67 113.23c-12.91,0 -23.38,10.46 -23.38,23.37 0,12.91 10.47,23.37 23.38,23.37 12.91,0 23.38,-10.46 23.38,-23.37 0,-12.91 -10.47,-23.37 -23.38,-23.37z"/>
  <path id="Fill-16" class="fil3" d="M111.36 136.6c0,13.95 11.35,25.29 25.3,25.29l0 0c13.95,0 25.3,-11.35 25.3,-25.29l0 0c0,-13.94 -11.35,-25.29 -25.3,-25.29l0 0c-13.95,0 -25.3,11.35 -25.3,25.29m3.84 0c0,-11.83 9.63,-21.45 21.46,-21.45l0 0c11.83,0 21.46,9.62 21.46,21.45l0 0c0,11.83 -9.62,21.45 -21.46,21.45l0 0c-11.84,0 -21.46,-9.62 -21.46,-21.45z"/>
  <path id="Fill-19" class="fil0" d="M151.18 47.34l0 56.63c8.08,3.56 14.56,10.04 18.12,18.12l56.66 0c-6.12,-38.3 -36.47,-68.63 -74.79,-74.75z"/>
  <path id="Fill-21" class="fil4" d="M149.94 45.87c-0.43,0.37 -0.68,0.9 -0.68,1.46l0 0 0 56.63c0,0.76 0.45,1.45 1.15,1.76l0 0c7.67,3.39 13.76,9.47 17.14,17.14l0 0c0.3,0.69 0.99,1.14 1.76,1.14l0 0 56.66 0c0.56,0 1.1,-0.25 1.46,-0.68l0 0c0.36,-0.43 0.52,-0.99 0.43,-1.55l0 0c-6.3,-39.37 -36.99,-70.05 -76.38,-76.35l0 0c-0.1,-0.01 -0.19,-0.02 -0.29,-0.02l0 0c-0.46,0 -0.9,0.16 -1.26,0.46m3.16 56.87l0 -53.13c35.94,6.68 63.91,34.64 70.58,70.55l0 0 -53.15 0c-3.68,-7.63 -9.8,-13.75 -17.43,-17.42z"/>
  <path id="Fill-24" class="fil0" d="M122 47.34c-38.32,6.12 -68.66,36.45 -74.79,74.75l56.66 0c3.57,-8.07 10.05,-14.55 18.13,-18.12l0 -56.63z"/>
  <path id="Fill-26" class="fil5" d="M121.7 45.44c-39.39,6.3 -70.09,36.98 -76.38,76.35l0 0c-0.09,0.55 0.07,1.12 0.43,1.55l0 0c0.37,0.43 0.9,0.68 1.46,0.68l0 0 56.66 0c0.76,0 1.45,-0.45 1.75,-1.14l0 0c3.39,-7.67 9.49,-13.75 17.15,-17.14l0 0c0.69,-0.31 1.14,-0.99 1.14,-1.76l0 0 0 -56.63c0,-0.56 -0.25,-1.1 -0.67,-1.46l0 0c-0.35,-0.3 -0.8,-0.46 -1.26,-0.46l0 0c-0.1,0 -0.19,0.01 -0.29,0.02m-1.62 4.18l0 53.13c-7.63,3.67 -13.75,9.79 -17.44,17.42l0 0 -53.15 0c6.68,-35.92 34.65,-63.88 70.59,-70.55z"/>
  <path id="Fill-29" class="fil0" d="M103.87 151.26l-56.66 0c6.12,38.31 36.47,68.63 74.79,74.75l0 -56.63c-8.08,-3.57 -14.56,-10.05 -18.13,-18.12z"/>
  <path id="Fill-31" class="fil6" d="M47.21 149.34c-0.56,0 -1.1,0.25 -1.46,0.68l0 0c-0.36,0.43 -0.52,0.99 -0.43,1.55l0 0c6.3,39.37 36.99,70.05 76.38,76.35l0 0c0.1,0.01 0.2,0.02 0.3,0.02l0 0c0.45,0 0.9,-0.16 1.25,-0.46l0 0c0.43,-0.37 0.67,-0.9 0.67,-1.46l0 0 0 -56.63c0,-0.76 -0.45,-1.45 -1.14,-1.76l0 0c-7.66,-3.38 -13.76,-9.47 -17.15,-17.14l0 0c-0.31,-0.69 -0.99,-1.14 -1.75,-1.14l0 0 -56.66 0zm2.28 3.84l53.15 0c3.68,7.63 9.81,13.75 17.44,17.43l0 0 0 53.13c-35.94,-6.68 -63.91,-34.64 -70.59,-70.56l0 0z"/>
  <path id="Fill-34" class="fil0" d="M151.18 226.01c38.32,-6.12 68.66,-36.45 74.79,-74.75l-56.66 0c-3.56,8.07 -10.05,14.55 -18.12,18.12l0 56.63z"/>
  <path id="Fill-36" class="fil7" d="M169.31 149.34c-0.76,0 -1.45,0.45 -1.76,1.14l0 0c-3.39,7.67 -9.48,13.75 -17.14,17.14l0 0c-0.7,0.31 -1.15,1 -1.15,1.76l0 0 0 56.63c0,0.56 0.25,1.1 0.68,1.46l0 0c0.35,0.29 0.79,0.46 1.24,0.46l0 0c0.1,0 0.2,-0.01 0.3,-0.02l0 0c39.39,-6.3 70.08,-36.98 76.38,-76.35l0 0c0.09,-0.55 -0.07,-1.12 -0.43,-1.55l0 0c-0.37,-0.43 -0.9,-0.68 -1.46,-0.68l0 0 -56.66 0zm-16.2 21.27c7.63,-3.68 13.75,-9.8 17.43,-17.43l0 0 53.15 0c-6.67,35.92 -34.65,63.88 -70.58,70.56l0 0 0 -53.13z"/>
 </g>
</svg>
