<?xml version="1.0" encoding="UTF-8"?>
<!DOCTYPE svg PUBLIC "-//W3C//DTD SVG 1.1//EN" "http://www.w3.org/Graphics/SVG/1.1/DTD/svg11.dtd">
<!-- Creator: CorelDRAW -->
<svg xmlns="http://www.w3.org/2000/svg" xml:space="preserve" width="23.0611mm" height="23.0504mm" version="1.1" style="shape-rendering:geometricPrecision; text-rendering:geometricPrecision; image-rendering:optimizeQuality; fill-rule:evenodd; clip-rule:evenodd"
viewBox="0 0 275.56 275.43"
 xmlns:xlink="http://www.w3.org/1999/xlink">
 <defs>
  <style type="text/css">
   <![CDATA[
    .fil0 {fill:#37383C}
    .fil3 {fill:url(#id0)}
    .fil1 {fill:url(#id1)}
    .fil6 {fill:url(#id2)}
    .fil5 {fill:url(#id3)}
    .fil2 {fill:url(#id4)}
    .fil7 {fill:url(#id5)}
    .fil4 {fill:url(#id6)}
   ]]>
  </style>
  <linearGradient id="id0" gradientUnits="userSpaceOnUse" x1="112.27" y1="137.72" x2="163.29" y2="137.72">
   <stop offset="0" style="stop-opacity:1; stop-color:#7C72FF"/>
   <stop offset="1" style="stop-opacity:1; stop-color:#6D64F4"/>
  </linearGradient>
  <linearGradient id="id1" gradientUnits="userSpaceOnUse" xlink:href="#id0" x1="-0" y1="137.74" x2="275.56" y2="137.74">
  </linearGradient>
  <linearGradient id="id2" gradientUnits="userSpaceOnUse" xlink:href="#id0" x1="45.66" y1="190.18" x2="124.93" y2="190.18">
  </linearGradient>
  <linearGradient id="id3" gradientUnits="userSpaceOnUse" xlink:href="#id0" x1="45.66" y1="85.41" x2="124.93" y2="85.41">
  </linearGradient>
  <linearGradient id="id4" gradientUnits="userSpaceOnUse" xlink:href="#id0" x1="30.46" y1="137.74" x2="245.08" y2="137.74">
  </linearGradient>
  <linearGradient id="id5" gradientUnits="userSpaceOnUse" xlink:href="#id0" x1="150.48" y1="190.18" x2="229.74" y2="190.18">
  </linearGradient>
  <linearGradient id="id6" gradientUnits="userSpaceOnUse" xlink:href="#id0" x1="150.48" y1="85.41" x2="229.74" y2="85.41">
  </linearGradient>
 </defs>
 <g id="Capa_x0020_1">
  <metadata id="CorelCorpID_0Corel-Layer"/>
  <g>
   <path id="Fill-4" class="fil0" d="M137.78 243.06c-58.21,0 -105.39,-47.17 -105.39,-105.34 0,-58.18 47.18,-105.35 105.39,-105.35 58.21,0 105.38,47.17 105.38,105.35 0,58.18 -47.18,105.34 -105.38,105.34l0 0zm0 -241.13c-75.03,0 -135.84,60.79 -135.84,135.78 0,74.99 60.81,135.78 135.84,135.78 75.02,0 135.84,-60.79 135.84,-135.78 0,-74.99 -60.82,-135.78 -135.84,-135.78z"/>
  </g>
  <path id="Fill-6" class="fil1" d="M137.78 0c-75.97,0 -137.78,61.78 -137.78,137.71l0 0c0,75.94 61.81,137.72 137.78,137.72l0 0c75.97,0 137.78,-61.78 137.78,-137.72l0 0c0,-75.93 -61.81,-137.71 -137.78,-137.71zm-133.91 137.71c0,-73.8 60.07,-133.84 133.91,-133.84l0 0c73.84,0 133.9,60.04 133.9,133.84l0 0c0,73.8 -60.07,133.85 -133.9,133.85l0 0c-73.84,0 -133.91,-60.04 -133.91,-133.85l0 0zm26.58 0c0,59.15 48.15,107.28 107.33,107.28l0 0c59.18,0 107.32,-48.13 107.32,-107.28l0 0c0,-59.15 -48.14,-107.28 -107.32,-107.28l0 0c-59.18,0 -107.33,48.13 -107.33,107.28l0 0zm3.87 0c0,-57.02 46.41,-103.41 103.45,-103.41l0 0c57.04,0 103.44,46.39 103.44,103.41l0 0c0,57.02 -46.4,103.41 -103.44,103.41l0 0c-57.05,0 -103.45,-46.39 -103.45,-103.41l0 0z"/>
  <path id="Fill-9" class="fil0" d="M152.42 227.86l0 -57.1c8.14,-3.6 14.68,-10.13 18.27,-18.27l57.12 0c-6.17,38.62 -36.77,69.19 -75.4,75.36l0 0zm-38.21 -90.14c0,-13.02 10.56,-23.56 23.58,-23.56 13.01,0 23.57,10.54 23.57,23.56 0,13.01 -10.56,23.56 -23.57,23.56 -13.02,0 -23.58,-10.55 -23.58,-23.56l0 0zm8.79 90.14c-38.63,-6.17 -69.22,-36.75 -75.4,-75.36l57.12 0c3.6,8.14 10.13,14.67 18.28,18.27l0 57.1zm0 -180.13l0 57.09c-8.15,3.59 -14.68,10.13 -18.28,18.27l-57.12 0c6.17,-38.61 36.76,-69.19 75.4,-75.36l0 0zm29.42 0c38.63,6.17 69.22,36.75 75.4,75.36l-57.12 0c-3.59,-8.14 -10.13,-14.67 -18.27,-18.27l0 -57.09zm-14.63 -15.35c-58.21,0 -105.39,47.17 -105.39,105.34 0,58.18 47.18,105.35 105.39,105.35 58.2,0 105.38,-47.17 105.38,-105.35 0,-58.18 -47.18,-105.34 -105.38,-105.34l0 0z"/>
  <path id="Fill-11" class="fil2" d="M30.46 137.71c0,59.15 48.15,107.28 107.33,107.28l0 0c59.18,0 107.32,-48.13 107.32,-107.28l0 0c0,-59.15 -48.14,-107.28 -107.32,-107.28l0 0c-59.18,0 -107.33,48.13 -107.33,107.28l0 0zm3.87 0c0,-57.02 46.41,-103.41 103.45,-103.41l0 0c57.04,0 103.44,46.39 103.44,103.41l0 0c0,57.02 -46.4,103.41 -103.44,103.41l0 0c-57.05,0 -103.45,-46.39 -103.45,-103.41l0 0zm116.83 -91.47c-0.43,0.37 -0.68,0.91 -0.68,1.48l0 0 0 57.09c0,0.77 0.45,1.46 1.16,1.77l0 0c7.73,3.41 13.87,9.55 17.28,17.28l0 0c0.31,0.7 1,1.15 1.77,1.15l0 0 57.12 0c0.57,0 1.11,-0.25 1.48,-0.68l0 0c0.36,-0.43 0.53,-1 0.44,-1.56l0 0c-6.35,-39.69 -37.29,-70.62 -77,-76.97l0 0c-0.1,-0.01 -0.19,-0.02 -0.29,-0.02l0 0c-0.46,0 -0.91,0.16 -1.27,0.46l0 0zm3.19 57.33l0 -53.56c36.23,6.73 64.43,34.92 71.16,71.13l0 0 -53.58 0c-3.71,-7.69 -9.88,-13.86 -17.58,-17.57l0 0zm-31.66 -57.77c-39.71,6.35 -70.66,37.28 -77.01,76.97l0 0c-0.09,0.56 0.07,1.13 0.44,1.56l0 0c0.37,0.43 0.91,0.68 1.48,0.68l0 0 57.12 0c0.77,0 1.46,-0.45 1.77,-1.15l0 0c3.42,-7.73 9.56,-13.87 17.29,-17.28l0 0c0.7,-0.31 1.15,-1 1.15,-1.77l0 0 0 -57.09c0,-0.57 -0.25,-1.1 -0.68,-1.48l0 0c-0.36,-0.3 -0.81,-0.46 -1.27,-0.46l0 0c-0.1,0 -0.19,0.01 -0.29,0.02l0 0zm-1.63 4.21l0 53.56c-7.69,3.7 -13.87,9.87 -17.58,17.57l0 0 -53.58 0c6.73,-36.21 34.93,-64.4 71.16,-71.13l0 0zm-8.79 87.69c0,14.06 11.44,25.5 25.51,25.5l0 0c14.06,0 25.5,-11.44 25.5,-25.5l0 0c0,-14.06 -11.44,-25.49 -25.5,-25.49l0 0c-14.07,0 -25.51,11.44 -25.51,25.49l0 0zm3.87 0c0,-11.92 9.7,-21.62 21.64,-21.62l0 0c11.93,0 21.63,9.7 21.63,21.62l0 0c0,11.93 -9.7,21.63 -21.63,21.63l0 0c-11.93,0 -21.64,-9.7 -21.64,-21.63l0 0zm54.54 12.84c-0.77,0 -1.46,0.46 -1.77,1.15l0 0c-3.41,7.73 -9.55,13.87 -17.28,17.28l0 0c-0.7,0.31 -1.16,1 -1.16,1.77l0 0 0 57.1c0,0.57 0.25,1.11 0.68,1.48l0 0c0.35,0.3 0.8,0.46 1.25,0.46l0 0c0.1,0 0.21,-0.01 0.31,-0.02l0 0c39.71,-6.35 70.65,-37.29 77,-76.97l0 0c0.09,-0.56 -0.07,-1.13 -0.44,-1.56l0 0c-0.37,-0.43 -0.91,-0.68 -1.48,-0.68l0 0 -57.12 0zm-16.34 21.44c7.7,-3.71 13.87,-9.88 17.58,-17.57l0 0 53.58 0c-6.73,36.21 -34.93,64.4 -71.16,71.13l0 0 0 -53.56zm-106.75 -21.44c-0.57,0 -1.11,0.25 -1.48,0.68l0 0c-0.37,0.43 -0.52,1 -0.44,1.56l0 0c6.35,39.69 37.29,70.62 77.01,76.97l0 0c0.1,0.01 0.2,0.02 0.3,0.02l0 0c0.46,0 0.91,-0.16 1.26,-0.46l0 0c0.43,-0.37 0.68,-0.91 0.68,-1.48l0 0 0 -57.1c0,-0.77 -0.45,-1.46 -1.15,-1.77l0 0c-7.73,-3.41 -13.87,-9.54 -17.29,-17.28l0 0c-0.31,-0.7 -1,-1.15 -1.77,-1.15l0 0 -57.12 0zm2.3 3.87l53.58 0c3.71,7.69 9.89,13.86 17.58,17.57l0 0 0 53.56c-36.23,-6.73 -64.43,-34.92 -71.16,-71.13l0 0z"/>
  <path id="Fill-14" class="fil0" d="M137.78 114.16c-13.02,0 -23.57,10.54 -23.57,23.56 0,13.01 10.56,23.56 23.57,23.56 13.01,0 23.57,-10.55 23.57,-23.56 0,-13.02 -10.56,-23.56 -23.57,-23.56z"/>
  <path id="Fill-16" class="fil3" d="M112.27 137.71c0,14.06 11.44,25.5 25.51,25.5l0 0c14.06,0 25.5,-11.44 25.5,-25.5l0 0c0,-14.06 -11.44,-25.49 -25.5,-25.49l0 0c-14.07,0 -25.51,11.44 -25.51,25.49m3.87 0c0,-11.92 9.7,-21.62 21.64,-21.62l0 0c11.93,0 21.63,9.7 21.63,21.62l0 0c0,11.93 -9.7,21.63 -21.63,21.63l0 0c-11.93,0 -21.64,-9.7 -21.64,-21.63z"/>
  <path id="Fill-19" class="fil0" d="M152.42 47.72l0 57.1c8.14,3.59 14.68,10.13 18.27,18.27l57.12 0c-6.17,-38.61 -36.77,-69.19 -75.4,-75.36z"/>
  <path id="Fill-21" class="fil4" d="M151.16 46.25c-0.43,0.37 -0.68,0.91 -0.68,1.48l0 0 0 57.09c0,0.77 0.45,1.46 1.16,1.77l0 0c7.73,3.41 13.87,9.55 17.28,17.28l0 0c0.31,0.7 1,1.15 1.77,1.15l0 0 57.12 0c0.57,0 1.11,-0.25 1.48,-0.68l0 0c0.36,-0.43 0.53,-1 0.44,-1.56l0 0c-6.35,-39.69 -37.29,-70.62 -77,-76.97l0 0c-0.1,-0.01 -0.19,-0.02 -0.29,-0.02l0 0c-0.46,0 -0.91,0.16 -1.27,0.46m3.19 57.33l0 -53.56c36.23,6.73 64.43,34.92 71.16,71.13l0 0 -53.58 0c-3.71,-7.69 -9.88,-13.86 -17.58,-17.57z"/>
  <path id="Fill-24" class="fil0" d="M123 47.72c-38.64,6.17 -69.22,36.75 -75.4,75.36l57.12 0c3.6,-8.14 10.13,-14.67 18.28,-18.27l0 -57.1z"/>
  <path id="Fill-26" class="fil5" d="M122.69 45.81c-39.71,6.35 -70.66,37.28 -77.01,76.97l0 0c-0.09,0.56 0.07,1.13 0.44,1.56l0 0c0.37,0.43 0.91,0.68 1.48,0.68l0 0 57.12 0c0.77,0 1.46,-0.45 1.77,-1.15l0 0c3.42,-7.73 9.56,-13.87 17.29,-17.28l0 0c0.7,-0.31 1.15,-1 1.15,-1.77l0 0 0 -57.09c0,-0.57 -0.25,-1.1 -0.68,-1.48l0 0c-0.36,-0.3 -0.81,-0.46 -1.27,-0.46l0 0c-0.1,0 -0.19,0.01 -0.29,0.02m-1.63 4.21l0 53.56c-7.69,3.7 -13.87,9.87 -17.58,17.57l0 0 -53.58 0c6.73,-36.21 34.93,-64.4 71.16,-71.13z"/>
  <path id="Fill-29" class="fil0" d="M104.72 152.49l-57.12 0c6.17,38.62 36.76,69.19 75.4,75.36l0 -57.1c-8.15,-3.6 -14.68,-10.13 -18.28,-18.27z"/>
  <path id="Fill-31" class="fil6" d="M47.6 150.56c-0.57,0 -1.11,0.25 -1.48,0.68l0 0c-0.37,0.43 -0.52,1 -0.44,1.56l0 0c6.35,39.69 37.29,70.62 77.01,76.97l0 0c0.1,0.01 0.2,0.02 0.3,0.02l0 0c0.46,0 0.91,-0.16 1.26,-0.46l0 0c0.43,-0.37 0.68,-0.91 0.68,-1.48l0 0 0 -57.1c0,-0.77 -0.45,-1.46 -1.15,-1.77l0 0c-7.73,-3.41 -13.87,-9.54 -17.29,-17.28l0 0c-0.31,-0.7 -1,-1.15 -1.77,-1.15l0 0 -57.12 0zm2.3 3.87l53.58 0c3.71,7.69 9.89,13.86 17.58,17.57l0 0 0 53.56c-36.23,-6.73 -64.43,-34.92 -71.16,-71.13l0 0z"/>
  <path id="Fill-34" class="fil0" d="M152.42 227.86c38.63,-6.17 69.22,-36.75 75.4,-75.36l-57.12 0c-3.59,8.14 -10.13,14.67 -18.27,18.27l0 57.1z"/>
  <path id="Fill-36" class="fil7" d="M170.69 150.56c-0.77,0 -1.46,0.46 -1.77,1.15l0 0c-3.41,7.73 -9.55,13.87 -17.28,17.28l0 0c-0.7,0.31 -1.16,1 -1.16,1.77l0 0 0 57.1c0,0.57 0.25,1.11 0.68,1.48l0 0c0.35,0.3 0.8,0.46 1.25,0.46l0 0c0.1,0 0.21,-0.01 0.31,-0.02l0 0c39.71,-6.35 70.65,-37.29 77,-76.97l0 0c0.09,-0.56 -0.07,-1.13 -0.44,-1.56l0 0c-0.37,-0.43 -0.91,-0.68 -1.48,-0.68l0 0 -57.12 0zm-16.34 21.44c7.7,-3.71 13.87,-9.88 17.58,-17.57l0 0 53.58 0c-6.73,36.21 -34.93,64.4 -71.16,71.13l0 0 0 -53.56z"/>
 </g>
</svg>
