<?xml version="1.0" encoding="UTF-8"?>
<!DOCTYPE svg PUBLIC "-//W3C//DTD SVG 1.1//EN" "http://www.w3.org/Graphics/SVG/1.1/DTD/svg11.dtd">
<!-- Creator: CorelDRAW -->
<svg xmlns="http://www.w3.org/2000/svg" xml:space="preserve" width="1.6933mm" height="1.6934mm" version="1.1" style="shape-rendering:geometricPrecision; text-rendering:geometricPrecision; image-rendering:optimizeQuality; fill-rule:evenodd; clip-rule:evenodd"
viewBox="0 0 6.73 6.73"
 xmlns:xlink="http://www.w3.org/1999/xlink">
 <defs>
  <style type="text/css">
   <![CDATA[
    .str0 {stroke:#523EC7;stroke-width:0.3;stroke-miterlimit:22.9256}
    .fil1 {fill:none}
    .fil0 {fill:#DBD3F9}
   ]]>
  </style>
 </defs>
 <g id="Capa_x0020_1">
  <metadata id="CorelCorpID_0Corel-Layer"/>
  <rect class="fil0" x="-0" y="0" width="6.73" height="6.73" rx="1.14" ry="1.44"/>
  <path class="fil1 str0" d="M4.3 1.45c0.33,0 0.64,0.13 0.87,0.36 0.23,0.23 0.36,0.54 0.36,0.87 0,0.33 -0.13,0.64 -0.36,0.87l-1.68 1.67c-0.07,0.07 -0.19,0.07 -0.27,0l-1.67 -1.67c-0.48,-0.48 -0.48,-1.26 0,-1.74 0.48,-0.48 1.26,-0.48 1.74,0l0.07 0.07 0.07 -0.07c0.23,-0.23 0.54,-0.36 0.87,-0.36z"/>
 </g>
</svg>
