<?xml version="1.0" encoding="UTF-8"?>
<!DOCTYPE svg PUBLIC "-//W3C//DTD SVG 1.1//EN" "http://www.w3.org/Graphics/SVG/1.1/DTD/svg11.dtd">
<!-- Creator: CorelDRAW -->
<svg xmlns="http://www.w3.org/2000/svg" xml:space="preserve" width="1.6933mm" height="1.6934mm" version="1.1" style="shape-rendering:geometricPrecision; text-rendering:geometricPrecision; image-rendering:optimizeQuality; fill-rule:evenodd; clip-rule:evenodd"
viewBox="0 0 6.7 6.7"
 xmlns:xlink="http://www.w3.org/1999/xlink">
 <defs>
  <style type="text/css">
   <![CDATA[
    .fil1 {fill:#523EC7}
    .fil0 {fill:#DBD3F9}
   ]]>
  </style>
 </defs>
 <g id="Capa_x0020_1">
  <metadata id="CorelCorpID_0Corel-Layer"/>
  <rect class="fil0" x="-0" y="0" width="6.7" height="6.7" rx="1.13" ry="1.43"/>
  <path class="fil1" d="M5.3 4.22c0.12,0 0.22,0.1 0.22,0.22l0 0 0 0.65c0,0.36 -0.29,0.65 -0.65,0.65l0 0 -3.04 0c-0.36,0 -0.65,-0.29 -0.65,-0.65l0 0 0 -0.65c0,-0.12 0.1,-0.22 0.22,-0.22 0.12,0 0.22,0.1 0.22,0.22l0 0 0 0.65c0,0.12 0.1,0.22 0.22,0.22l0 0 3.04 0c0.12,0 0.22,-0.1 0.22,-0.22l0 0 0 -0.65c0,-0.12 0.1,-0.22 0.22,-0.22zm-1.95 -3.25c0.12,0 0.22,0.1 0.22,0.22l0 0 -0 2.51 0.5 -0.5c0.08,-0.08 0.2,-0.08 0.28,-0.02l0.02 0.02c0.08,0.08 0.08,0.22 0,0.31l0 0 -0.87 0.87c-0,0 -0,0 -0,0 -0,0 -0.01,0.01 -0.01,0.01 -0,0 -0,0 -0.01,0.01 -0.01,0 -0.01,0.01 -0.02,0.01 -0,0 -0,0 -0,0 -0.01,0 -0.01,0.01 -0.02,0.01 -0,0 -0,0 -0.01,0 -0,0 -0.01,0 -0.01,0.01 -0.04,0.01 -0.09,0.01 -0.14,-0 -0,-0 -0.01,-0 -0.01,-0 -0,-0 -0.01,-0 -0.01,-0 -0,-0 -0.01,-0 -0.01,-0.01 -0,-0 -0,-0 -0.01,-0 -0.01,-0 -0.01,-0.01 -0.02,-0.01 -0.01,-0.01 -0.02,-0.01 -0.02,-0.02l0.02 0.02c-0.01,-0 -0.01,-0.01 -0.02,-0.01l-0 -0 -0.87 -0.87c-0.08,-0.08 -0.08,-0.22 0,-0.31 0.08,-0.08 0.22,-0.08 0.31,0l0 0 0.5 0.5 0 -2.51c0,-0.11 0.08,-0.2 0.19,-0.21l0.03 -0z"/>
 </g>
</svg>
