<?xml version="1.0" encoding="UTF-8"?>
<!DOCTYPE svg PUBLIC "-//W3C//DTD SVG 1.1//EN" "http://www.w3.org/Graphics/SVG/1.1/DTD/svg11.dtd">
<!-- Creator: CorelDRAW -->
<svg xmlns="http://www.w3.org/2000/svg" xml:space="preserve" width="2.7093mm" height="2.7095mm" version="1.1" style="shape-rendering:geometricPrecision; text-rendering:geometricPrecision; image-rendering:optimizeQuality; fill-rule:evenodd; clip-rule:evenodd"
viewBox="0 0 114.66 114.67"
 xmlns:xlink="http://www.w3.org/1999/xlink">
 <defs>
  <style type="text/css">
   <![CDATA[
    .str0 {stroke:#523EC7;stroke-width:4.48;stroke-miterlimit:22.9256}
    .fil1 {fill:#523EC7}
    .fil0 {fill:white}
   ]]>
  </style>
 </defs>
 <g id="Capa_x0020_1">
  <metadata id="CorelCorpID_0Corel-Layer"/>
  <rect class="fil0" x="-0" y="-0" width="114.66" height="114.67" rx="20.7" ry="23.29"/>
  <path class="fil1 str0" d="M69.72 32.14c4.35,0 8.43,1.71 11.47,4.75 3.03,3.03 4.75,7.12 4.75,11.47 0,4.35 -1.71,8.43 -4.75,11.47l-22.15 22.02c-0.92,0.92 -2.5,0.92 -3.55,0l-22.02 -22.02c-6.33,-6.33 -6.33,-16.61 0,-22.94 6.33,-6.33 16.61,-6.33 22.94,0l0.92 0.92 0.92 -0.92c3.03,-3.03 7.12,-4.75 11.47,-4.75z"/>
 </g>
</svg>
