<?xml version="1.0" encoding="UTF-8"?>
<!DOCTYPE svg PUBLIC "-//W3C//DTD SVG 1.1//EN" "http://www.w3.org/Graphics/SVG/1.1/DTD/svg11.dtd">
<!-- Creator: CorelDRAW -->
<svg xmlns="http://www.w3.org/2000/svg" xml:space="preserve" width="1.6933mm" height="1.6934mm" version="1.1" style="shape-rendering:geometricPrecision; text-rendering:geometricPrecision; image-rendering:optimizeQuality; fill-rule:evenodd; clip-rule:evenodd"
viewBox="0 0 5.57 5.57"
 xmlns:xlink="http://www.w3.org/1999/xlink">
 <defs>
  <style type="text/css">
   <![CDATA[
    .fil1 {fill:#523EC7}
    .fil0 {fill:white}
   ]]>
  </style>
 </defs>
 <g id="Capa_x0020_1">
  <metadata id="CorelCorpID_0Corel-Layer"/>
  <rect class="fil0" x="-0" y="0" width="5.57" height="5.57" rx="0.94" ry="1.19"/>
  <path class="fil1" d="M3.56 1.2c0.27,0 0.53,0.11 0.72,0.3 0.19,0.19 0.3,0.45 0.3,0.72 0,0.27 -0.11,0.53 -0.3,0.72l-1.39 1.38c-0.06,0.06 -0.16,0.06 -0.22,0l-1.39 -1.38c-0.4,-0.4 -0.4,-1.04 0,-1.44 0.4,-0.4 1.04,-0.4 1.44,0l0.06 0.06 0.06 -0.06c0.19,-0.19 0.45,-0.3 0.72,-0.3z"/>
 </g>
</svg>
