<?xml version="1.0" encoding="UTF-8"?>
<!DOCTYPE svg PUBLIC "-//W3C//DTD SVG 1.1//EN" "http://www.w3.org/Graphics/SVG/1.1/DTD/svg11.dtd">
<!-- Creator: CorelDRAW -->
<svg xmlns="http://www.w3.org/2000/svg" xml:space="preserve" width="1.6933mm" height="1.6934mm" version="1.1" style="shape-rendering:geometricPrecision; text-rendering:geometricPrecision; image-rendering:optimizeQuality; fill-rule:evenodd; clip-rule:evenodd"
viewBox="0 0 6.07 6.07"
 xmlns:xlink="http://www.w3.org/1999/xlink">
 <defs>
  <style type="text/css">
   <![CDATA[
    .fil1 {fill:#523EC7}
    .fil0 {fill:white}
   ]]>
  </style>
 </defs>
 <g id="Capa_x0020_1">
  <metadata id="CorelCorpID_0Corel-Layer"/>
  <rect class="fil0" x="-0" y="0" width="6.07" height="6.07" rx="1.03" ry="1.3"/>
  <path class="fil1" d="M4.8 3.82c0.11,0 0.2,0.09 0.2,0.2l0 0 0 0.59c0,0.33 -0.26,0.59 -0.59,0.59l0 0 -2.75 0c-0.33,0 -0.59,-0.26 -0.59,-0.59l0 0 0 -0.59c0,-0.11 0.09,-0.2 0.2,-0.2 0.11,0 0.2,0.09 0.2,0.2l0 0 0 0.59c0,0.11 0.09,0.2 0.2,0.2l0 0 2.75 0c0.11,0 0.2,-0.09 0.2,-0.2l0 0 0 -0.59c0,-0.11 0.09,-0.2 0.2,-0.2zm-1.77 -2.95c0.11,0 0.2,0.09 0.2,0.2l0 0 -0 2.28 0.45 -0.45c0.07,-0.07 0.18,-0.08 0.26,-0.02l0.02 0.02c0.08,0.08 0.08,0.2 0,0.28l0 0 -0.79 0.79c-0,0 -0,0 -0,0 -0,0 -0.01,0.01 -0.01,0.01 -0,0 -0,0 -0.01,0 -0.01,0 -0.01,0.01 -0.02,0.01 -0,0 -0,0 -0,0 -0.01,0 -0.01,0.01 -0.02,0.01 -0,0 -0,0 -0.01,0 -0,0 -0.01,0 -0.01,0 -0.04,0.01 -0.08,0.01 -0.12,-0 -0,-0 -0.01,-0 -0.01,-0 -0,-0 -0.01,-0 -0.01,-0 -0,-0 -0.01,-0 -0.01,-0.01 -0,-0 -0,-0 -0.01,-0 -0.01,-0 -0.01,-0.01 -0.02,-0.01 -0.01,-0.01 -0.01,-0.01 -0.02,-0.02l0.02 0.02c-0.01,-0 -0.01,-0.01 -0.02,-0.01l-0 -0 -0.79 -0.79c-0.08,-0.08 -0.08,-0.2 0,-0.28 0.08,-0.08 0.2,-0.08 0.28,0l0 0 0.45 0.45 0 -2.28c0,-0.1 0.07,-0.18 0.17,-0.19l0.02 -0z"/>
 </g>
</svg>
