<?xml version="1.0" encoding="UTF-8"?>
<!DOCTYPE svg PUBLIC "-//W3C//DTD SVG 1.1//EN" "http://www.w3.org/Graphics/SVG/1.1/DTD/svg11.dtd">
<!-- Creator: CorelDRAW -->
<svg xmlns="http://www.w3.org/2000/svg" xml:space="preserve" width="1.6933mm" height="1.6933mm" version="1.1" style="shape-rendering:geometricPrecision; text-rendering:geometricPrecision; image-rendering:optimizeQuality; fill-rule:evenodd; clip-rule:evenodd"
viewBox="0 0 1.93 1.93"
 xmlns:xlink="http://www.w3.org/1999/xlink">
 <defs>
  <style type="text/css">
   <![CDATA[
    .fil0 {fill:none}
    .fil1 {fill:#CDD6E0}
   ]]>
  </style>
 </defs>
 <g id="Capa_x0020_1">
  <metadata id="CorelCorpID_0Corel-Layer"/>
  <g id="_105555604237120">
   <rect id="Rectangle-Copy-2" class="fil0" x="0" y="0" width="1.93" height="1.93"/>
   <path id="Clip-19" class="fil1" d="M0.97 0.17c0.26,0 0.29,0 0.39,0.01 0.09,0 0.15,0.02 0.18,0.03 0.05,0.02 0.08,0.04 0.11,0.07 0.03,0.03 0.05,0.07 0.07,0.11 0.01,0.03 0.03,0.09 0.03,0.18 0,0.1 0.01,0.13 0.01,0.39 0,0.26 -0,0.29 -0.01,0.39 -0,0.09 -0.02,0.15 -0.03,0.18 -0.02,0.05 -0.04,0.08 -0.07,0.11 -0.03,0.03 -0.07,0.05 -0.11,0.07 -0.03,0.01 -0.09,0.03 -0.18,0.03 -0.1,0 -0.13,0.01 -0.39,0.01 -0.26,0 -0.29,-0 -0.39,-0.01 -0.09,-0 -0.15,-0.02 -0.18,-0.03 -0.05,-0.02 -0.08,-0.04 -0.11,-0.07 -0.03,-0.03 -0.05,-0.07 -0.07,-0.11 -0.01,-0.03 -0.03,-0.09 -0.03,-0.18 -0,-0.1 -0.01,-0.13 -0.01,-0.39 0,-0.26 0,-0.29 0.01,-0.39 0,-0.09 0.02,-0.15 0.03,-0.18 0.02,-0.05 0.04,-0.08 0.07,-0.11 0.03,-0.03 0.07,-0.05 0.11,-0.07 0.03,-0.01 0.09,-0.03 0.18,-0.03 0.1,-0 0.13,-0.01 0.39,-0.01l0 0zm0 -0.17c-0.26,0 -0.3,0 -0.4,0.01 -0.1,0 -0.17,0.02 -0.23,0.04 -0.06,0.02 -0.12,0.06 -0.17,0.11 -0.05,0.05 -0.09,0.11 -0.11,0.17 -0.02,0.06 -0.04,0.13 -0.04,0.23 -0,0.1 -0.01,0.14 -0.01,0.4 0,0.26 0,0.3 0.01,0.4 0,0.1 0.02,0.17 0.04,0.23 0.02,0.06 0.06,0.12 0.11,0.17 0.05,0.05 0.11,0.09 0.17,0.11 0.06,0.02 0.13,0.04 0.23,0.04 0.1,0 0.14,0.01 0.4,0.01 0.26,0 0.3,-0 0.4,-0.01 0.1,-0 0.17,-0.02 0.23,-0.04 0.06,-0.02 0.12,-0.06 0.17,-0.11 0.05,-0.05 0.09,-0.11 0.11,-0.17 0.02,-0.06 0.04,-0.13 0.04,-0.23 0,-0.1 0.01,-0.14 0.01,-0.4 0,-0.26 -0,-0.3 -0.01,-0.4 -0,-0.1 -0.02,-0.17 -0.04,-0.23 -0.02,-0.06 -0.06,-0.12 -0.11,-0.17 -0.05,-0.05 -0.11,-0.09 -0.17,-0.11 -0.06,-0.02 -0.13,-0.04 -0.23,-0.04 -0.1,-0 -0.14,-0.01 -0.4,-0.01l0 0zm0 0.47c-0.27,0 -0.5,0.22 -0.5,0.5 0,0.27 0.22,0.5 0.5,0.5 0.27,0 0.5,-0.22 0.5,-0.5 0,-0.27 -0.22,-0.5 -0.5,-0.5l0 0zm0 0.82c-0.18,0 -0.32,-0.14 -0.32,-0.32 0,-0.18 0.14,-0.32 0.32,-0.32 0.18,0 0.32,0.14 0.32,0.32 0,0.18 -0.14,0.32 -0.32,0.32l0 0zm0.63 -0.84c0,0.06 -0.05,0.11 -0.11,0.11 -0.06,0 -0.11,-0.05 -0.11,-0.11 0,-0.06 0.05,-0.11 0.11,-0.11 0.06,0 0.11,0.05 0.11,0.11l0 0z"/>
  </g>
 </g>
</svg>
