<?xml version="1.0" encoding="UTF-8"?>
<!DOCTYPE svg PUBLIC "-//W3C//DTD SVG 1.1//EN" "http://www.w3.org/Graphics/SVG/1.1/DTD/svg11.dtd">
<!-- Creator: CorelDRAW -->
<svg xmlns="http://www.w3.org/2000/svg" xml:space="preserve" width="2.7092mm" height="2.7092mm" version="1.1" style="shape-rendering:geometricPrecision; text-rendering:geometricPrecision; image-rendering:optimizeQuality; fill-rule:evenodd; clip-rule:evenodd"
viewBox="0 0 58.04 58.04"
 xmlns:xlink="http://www.w3.org/1999/xlink">
 <defs>
  <style type="text/css">
   <![CDATA[
    .fil1 {fill:#523EC7}
    .fil0 {fill:white}
   ]]>
  </style>
 </defs>
 <g id="Capa_x0020_1">
  <metadata id="CorelCorpID_0Corel-Layer"/>
  <path class="fil0" d="M9.83 0l38.38 0c5.43,0.01 9.83,5.57 9.83,12.42l0.01 33.2c-0.01,6.85 -4.41,12.41 -9.84,12.41l-38.37 0.01c-5.42,-0.01 -9.83,-5.57 -9.83,-12.43l-0.01 -33.19c0.01,-6.86 4.41,-12.42 9.84,-12.42z"/>
  <path class="fil1" d="M32.09 12.13c2.54,0 4.61,2.06 4.61,4.61l0 0 -0 1.53 6.14 0c0.78,0 1.43,0.59 1.52,1.34l0.01 0.19c0,0.85 -0.69,1.53 -1.54,1.53l0 0 -1.54 0 0 19.96c0,2.44 -1.9,4.44 -4.3,4.6l-0.3 0.01 -15.35 0c-2.54,0 -4.61,-2.06 -4.61,-4.61l0 0 0 -19.96 -1.53 0c-0.78,0 -1.43,-0.58 -1.52,-1.34l-0.01 -0.19c0,-0.85 0.69,-1.54 1.54,-1.54l0 0 6.14 0 0 -1.53c0,-2.44 1.9,-4.44 4.3,-4.6l0.3 -0.01 6.14 0zm6.14 9.21l-18.42 0 0 19.96c0,0.78 0.58,1.43 1.34,1.52l0.19 0.01 15.35 0c0.85,0 1.53,-0.69 1.53,-1.54l0 0 0 -19.96zm-12.28 4.61c0.85,0 1.53,0.69 1.53,1.54l0 0 0 9.21c0,0.85 -0.69,1.54 -1.53,1.54 -0.85,0 -1.54,-0.69 -1.54,-1.54l0 0 0 -9.21c0,-0.85 0.69,-1.54 1.54,-1.54zm6.14 0c0.85,0 1.54,0.69 1.54,1.54l0 0 0 9.21c0,0.85 -0.69,1.54 -1.54,1.54 -0.85,0 -1.53,-0.69 -1.53,-1.54l0 0 0 -9.21c0,-0.85 0.69,-1.54 1.53,-1.54zm0 -10.75l-6.14 0c-0.85,0 -1.54,0.69 -1.54,1.54l0 0 0 1.53 9.21 0 0 -1.53c0,-0.78 -0.59,-1.43 -1.34,-1.53l-0.19 -0.01z"/>
 </g>
</svg>
