<?xml version="1.0" encoding="UTF-8"?>
<!DOCTYPE svg PUBLIC "-//W3C//DTD SVG 1.1//EN" "http://www.w3.org/Graphics/SVG/1.1/DTD/svg11.dtd">
<!-- Creator: CorelDRAW -->
<svg xmlns="http://www.w3.org/2000/svg" xml:space="preserve" width="2.7092mm" height="2.7092mm" version="1.1" style="shape-rendering:geometricPrecision; text-rendering:geometricPrecision; image-rendering:optimizeQuality; fill-rule:evenodd; clip-rule:evenodd"
viewBox="0 0 58.04 58.04"
 xmlns:xlink="http://www.w3.org/1999/xlink">
 <defs>
  <style type="text/css">
   <![CDATA[
    .fil1 {fill:#523EC7}
    .fil0 {fill:white}
   ]]>
  </style>
 </defs>
 <g id="Capa_x0020_1">
  <metadata id="CorelCorpID_0Corel-Layer"/>
  <path class="fil0" d="M9.83 0l38.38 0c5.43,0.01 9.83,5.57 9.83,12.42l0.01 33.2c-0.01,6.85 -4.41,12.41 -9.84,12.41l-38.37 0.01c-5.42,-0.01 -9.83,-5.57 -9.83,-12.43l-0.01 -33.19c0.01,-6.86 4.41,-12.42 9.84,-12.42z"/>
  <path class="fil1" d="M24.85 31.01c0.6,-0.6 1.58,-0.6 2.18,0 0.6,0.6 0.6,1.58 0,2.18l0 0 -8.15 8.15 5.53 0c0.78,0 1.43,0.59 1.53,1.35l0.01 0.19c0,0.85 -0.69,1.54 -1.54,1.54l0 0 -9.24 0c-0.13,0 -0.26,-0.02 -0.39,-0.05 -0.01,-0 -0.03,-0.01 -0.05,-0.01 -0.04,-0.01 -0.09,-0.03 -0.13,-0.04 -0.02,-0.01 -0.04,-0.02 -0.07,-0.03 -0.04,-0.02 -0.07,-0.03 -0.11,-0.06 -0.02,-0.01 -0.05,-0.03 -0.07,-0.04 -0.03,-0.02 -0.06,-0.04 -0.08,-0.06 -0.06,-0.05 -0.13,-0.1 -0.19,-0.16l0.12 0.11c-0.04,-0.03 -0.07,-0.06 -0.1,-0.09l-0.02 -0.02c-0.01,-0.01 -0.02,-0.02 -0.02,-0.03 -0.03,-0.03 -0.05,-0.06 -0.08,-0.09 -0.02,-0.03 -0.04,-0.05 -0.06,-0.07 -0.03,-0.03 -0.05,-0.07 -0.07,-0.1 -0.01,-0.01 -0.02,-0.03 -0.03,-0.05 -0.12,-0.22 -0.2,-0.48 -0.2,-0.75l0 0 0 -9.24c0,-0.85 0.69,-1.54 1.54,-1.54 0.85,0 1.54,0.69 1.54,1.54l0 0 0 5.52 8.15 -8.15zm18.03 -17.4c0.08,0 0.17,0.01 0.25,0.02 0.11,0.02 0.22,0.05 0.32,0.09 0.01,0 0.02,0.01 0.03,0.01 0.05,0.02 0.1,0.04 0.15,0.07 0.02,0.01 0.03,0.02 0.05,0.03 0.03,0.02 0.07,0.04 0.1,0.07 0.07,0.05 0.13,0.1 0.19,0.16l-0.11 -0.1c0.03,0.02 0.06,0.05 0.09,0.08l0.02 0.02c0.01,0.01 0.01,0.01 0.02,0.02 0.03,0.03 0.06,0.07 0.09,0.1 0.02,0.02 0.03,0.04 0.05,0.06 0.02,0.03 0.04,0.05 0.06,0.08 0.02,0.03 0.03,0.05 0.05,0.08 0.02,0.03 0.04,0.07 0.05,0.1 0.01,0.02 0.02,0.05 0.03,0.07 0.07,0.17 0.11,0.37 0.11,0.57l0 0 0 9.24c0,0.85 -0.69,1.54 -1.54,1.54 -0.85,0 -1.54,-0.69 -1.54,-1.54l0 0 0 -5.53 -8.15 8.15c-0.55,0.55 -1.42,0.6 -2.02,0.14l-0.16 -0.14c-0.6,-0.6 -0.6,-1.58 0,-2.18l0 0 8.15 -8.15 -5.52 0c-0.78,0 -1.43,-0.59 -1.53,-1.35l-0.01 -0.19c0,-0.85 0.69,-1.54 1.54,-1.54l0 0 9.24 0z"/>
 </g>
</svg>
