<?xml version="1.0" encoding="UTF-8"?>
<!DOCTYPE svg PUBLIC "-//W3C//DTD SVG 1.1//EN" "http://www.w3.org/Graphics/SVG/1.1/DTD/svg11.dtd">
<!-- Creator: CorelDRAW -->
<svg xmlns="http://www.w3.org/2000/svg" xml:space="preserve" width="2.7092mm" height="2.7092mm" version="1.1" style="shape-rendering:geometricPrecision; text-rendering:geometricPrecision; image-rendering:optimizeQuality; fill-rule:evenodd; clip-rule:evenodd"
viewBox="0 0 57 57"
 xmlns:xlink="http://www.w3.org/1999/xlink">
 <defs>
  <style type="text/css">
   <![CDATA[
    .fil1 {fill:#6900C8}
    .fil0 {fill:white}
   ]]>
  </style>
 </defs>
 <g id="Capa_x0020_1">
  <metadata id="CorelCorpID_0Corel-Layer"/>
  <path class="fil0" d="M9.66 0l37.69 0c5.33,0.01 9.65,5.47 9.65,12.2l0.01 32.6c-0.01,6.73 -4.33,12.19 -9.66,12.19l-37.68 0.01c-5.33,-0.01 -9.65,-5.47 -9.65,-12.2l-0.01 -32.6c0.01,-6.73 4.33,-12.19 9.66,-12.19z"/>
  <path class="fil1" d="M32.98 22.53l4.48 0c1.58,0 3.1,0.63 4.22,1.75 1.12,1.12 1.75,2.64 1.75,4.22 0,3.3 -2.67,5.97 -5.97,5.97l-4.48 0c-0.82,0 -1.49,0.67 -1.49,1.49 0,0.82 0.67,1.49 1.49,1.49l4.48 0c4.95,0 8.96,-4.01 8.96,-8.96 0,-2.38 -0.94,-4.65 -2.62,-6.33 -1.68,-1.68 -3.96,-2.62 -6.33,-2.62l-4.48 0c-0.82,0 -1.49,0.67 -1.49,1.49 0,0.82 0.67,1.49 1.49,1.49zm-8.96 -2.99c0.82,0 1.49,0.67 1.49,1.49 0,0.82 -0.67,1.49 -1.49,1.49l0 0 -4.48 0c-3.3,0 -5.97,2.67 -5.97,5.97 0,1.58 0.63,3.1 1.75,4.22 1.12,1.12 2.64,1.75 4.22,1.75l0 0 4.48 0c0.82,0 1.49,0.67 1.49,1.49 0,0.82 -0.67,1.49 -1.49,1.49l0 0 -4.48 0c-2.38,0 -4.66,-0.94 -6.33,-2.62 -1.68,-1.68 -2.62,-3.96 -2.62,-6.33 0,-4.95 4.01,-8.96 8.96,-8.96l0 0 4.48 0zm10.45 7.47c0.82,0 1.49,0.67 1.49,1.49 0,0.82 -0.67,1.49 -1.49,1.49l0 0 -11.95 0c-0.82,0 -1.49,-0.67 -1.49,-1.49 0,-0.82 0.67,-1.49 1.49,-1.49l0 0 11.95 0z"/>
 </g>
</svg>
