<?xml version="1.0" encoding="UTF-8"?>
<!DOCTYPE svg PUBLIC "-//W3C//DTD SVG 1.1//EN" "http://www.w3.org/Graphics/SVG/1.1/DTD/svg11.dtd">
<!-- Creator: CorelDRAW -->
<svg xmlns="http://www.w3.org/2000/svg" xml:space="preserve" width="2.7092mm" height="2.7092mm" version="1.1" style="shape-rendering:geometricPrecision; text-rendering:geometricPrecision; image-rendering:optimizeQuality; fill-rule:evenodd; clip-rule:evenodd"
viewBox="0 0 38.42 38.42"
 xmlns:xlink="http://www.w3.org/1999/xlink">
 <defs>
  <style type="text/css">
   <![CDATA[
    .fil1 {fill:#6900C8}
    .fil0 {fill:#DBD3F9}
   ]]>
  </style>
 </defs>
 <g id="Capa_x0020_1">
  <metadata id="CorelCorpID_0Corel-Layer"/>
  <path class="fil0" d="M6.51 0l25.4 0c3.59,0 6.51,3.68 6.51,8.22l0 21.97c-0,4.54 -2.92,8.22 -6.51,8.22l-25.4 0.01c-3.59,-0.01 -6.5,-3.69 -6.5,-8.23l-0.01 -21.97c0.01,-4.54 2.92,-8.22 6.51,-8.22z"/>
  <path class="fil1" d="M22.23 15.19l3.02 0c1.07,0 2.09,0.42 2.85,1.18 0.76,0.75 1.18,1.78 1.18,2.85 0,2.22 -1.8,4.03 -4.03,4.03l-3.02 0c-0.56,0 -1.01,0.45 -1.01,1.01 0,0.56 0.45,1.01 1.01,1.01l3.02 0c3.34,0 6.04,-2.7 6.04,-6.04 0,-1.6 -0.64,-3.14 -1.77,-4.27 -1.13,-1.13 -2.67,-1.77 -4.27,-1.77l-3.02 0c-0.56,0 -1.01,0.45 -1.01,1.01 0,0.56 0.45,1.01 1.01,1.01zm-6.04 -2.01c0.56,0 1.01,0.45 1.01,1.01 0,0.56 -0.45,1.01 -1.01,1.01l0 0 -3.02 0c-2.22,0 -4.03,1.8 -4.03,4.02 0,1.07 0.42,2.09 1.18,2.85 0.75,0.76 1.78,1.18 2.85,1.18l0 0 3.02 0c0.56,0 1.01,0.45 1.01,1.01 0,0.56 -0.45,1.01 -1.01,1.01l0 0 -3.02 0c-1.6,0 -3.14,-0.64 -4.27,-1.77 -1.13,-1.13 -1.77,-2.67 -1.77,-4.27 0,-3.33 2.7,-6.04 6.04,-6.04l0 0 3.02 0zm7.05 5.03c0.56,0 1.01,0.45 1.01,1.01 0,0.56 -0.45,1.01 -1.01,1.01l0 0 -8.05 0c-0.56,0 -1.01,-0.45 -1.01,-1.01 0,-0.56 0.45,-1.01 1.01,-1.01l0 0 8.05 0z"/>
 </g>
</svg>
