<?xml version="1.0" encoding="UTF-8"?>
<!DOCTYPE svg PUBLIC "-//W3C//DTD SVG 1.1//EN" "http://www.w3.org/Graphics/SVG/1.1/DTD/svg11.dtd">
<!-- Creator: CorelDRAW -->
<svg xmlns="http://www.w3.org/2000/svg" xml:space="preserve" width="2.7092mm" height="2.7092mm" version="1.1" style="shape-rendering:geometricPrecision; text-rendering:geometricPrecision; image-rendering:optimizeQuality; fill-rule:evenodd; clip-rule:evenodd"
viewBox="0 0 38.37 38.37"
 xmlns:xlink="http://www.w3.org/1999/xlink">
 <defs>
  <style type="text/css">
   <![CDATA[
    .fil1 {fill:#523EC7}
    .fil0 {fill:#DBD3F9}
   ]]>
  </style>
 </defs>
 <g id="Capa_x0020_1">
  <metadata id="CorelCorpID_0Corel-Layer"/>
  <path class="fil0" d="M6.5 0l25.37 0c3.59,0 6.5,3.68 6.5,8.21l0 21.95c-0,4.53 -2.91,8.21 -6.5,8.21l-25.37 0.01c-3.58,-0.01 -6.5,-3.68 -6.5,-8.22l-0.01 -21.94c0.01,-4.53 2.92,-8.21 6.51,-8.21z"/>
  <path class="fil1" d="M16.43 20.5c0.4,-0.4 1.04,-0.4 1.44,0 0.4,0.4 0.4,1.04 0,1.44l0 0 -5.39 5.39 3.65 0c0.52,0 0.95,0.39 1.01,0.89l0.01 0.13c0,0.56 -0.46,1.02 -1.02,1.02l0 0 -6.11 0c-0.09,0 -0.17,-0.01 -0.26,-0.03 -0.01,-0 -0.02,-0.01 -0.03,-0.01 -0.03,-0.01 -0.06,-0.02 -0.09,-0.03 -0.01,-0.01 -0.03,-0.01 -0.04,-0.02 -0.03,-0.01 -0.05,-0.02 -0.07,-0.04 -0.02,-0.01 -0.03,-0.02 -0.05,-0.03 -0.02,-0.01 -0.04,-0.03 -0.06,-0.04 -0.04,-0.03 -0.08,-0.07 -0.12,-0.1l0.08 0.07c-0.02,-0.02 -0.05,-0.04 -0.07,-0.06l-0.01 -0.01c-0.01,-0.01 -0.01,-0.01 -0.02,-0.02 -0.02,-0.02 -0.04,-0.04 -0.05,-0.06 -0.01,-0.02 -0.03,-0.03 -0.04,-0.05 -0.02,-0.02 -0.03,-0.05 -0.05,-0.07 -0.01,-0.01 -0.01,-0.02 -0.02,-0.03 -0.08,-0.15 -0.13,-0.32 -0.13,-0.5l0 0 0 -6.11c0,-0.56 0.46,-1.02 1.02,-1.02 0.56,0 1.02,0.46 1.02,1.02l0 0 0 3.65 5.39 -5.39zm11.92 -11.5c0.06,0 0.11,0.01 0.17,0.01 0.07,0.01 0.14,0.03 0.21,0.06 0.01,0 0.02,0.01 0.02,0.01 0.03,0.01 0.07,0.03 0.1,0.05 0.01,0.01 0.02,0.01 0.03,0.02 0.02,0.01 0.05,0.03 0.07,0.05 0.04,0.03 0.08,0.07 0.12,0.1l-0.07 -0.07c0.02,0.02 0.04,0.03 0.06,0.05l0.02 0.02c0,0 0.01,0.01 0.01,0.01 0.02,0.02 0.04,0.04 0.06,0.07 0.01,0.01 0.02,0.03 0.03,0.04 0.01,0.02 0.03,0.04 0.04,0.05 0.01,0.02 0.02,0.04 0.03,0.05 0.01,0.02 0.02,0.05 0.03,0.07 0.01,0.02 0.01,0.03 0.02,0.05 0.05,0.11 0.07,0.24 0.07,0.37l0 0 0 6.11c0,0.56 -0.46,1.02 -1.02,1.02 -0.56,0 -1.02,-0.46 -1.02,-1.02l0 0 0 -3.65 -5.39 5.39c-0.36,0.37 -0.94,0.4 -1.34,0.09l-0.1 -0.09c-0.4,-0.4 -0.4,-1.04 0,-1.44l0 0 5.39 -5.39 -3.65 0c-0.52,0 -0.95,-0.39 -1.01,-0.89l-0.01 -0.13c0,-0.56 0.46,-1.02 1.02,-1.02l0 0 6.11 0z"/>
 </g>
</svg>
