<?xml version="1.0" encoding="UTF-8"?>
<!DOCTYPE svg PUBLIC "-//W3C//DTD SVG 1.1//EN" "http://www.w3.org/Graphics/SVG/1.1/DTD/svg11.dtd">
<!-- Creator: CorelDRAW -->
<svg xmlns="http://www.w3.org/2000/svg" xml:space="preserve" width="1.6933mm" height="1.6934mm" version="1.1" style="shape-rendering:geometricPrecision; text-rendering:geometricPrecision; image-rendering:optimizeQuality; fill-rule:evenodd; clip-rule:evenodd"
viewBox="0 0 6.08 6.08"
 xmlns:xlink="http://www.w3.org/1999/xlink">
 <defs>
  <style type="text/css">
   <![CDATA[
    .str0 {stroke:#523EC7;stroke-width:0.27;stroke-miterlimit:22.9256}
    .fil1 {fill:none}
    .fil0 {fill:white}
   ]]>
  </style>
 </defs>
 <g id="Capa_x0020_1">
  <metadata id="CorelCorpID_0Corel-Layer"/>
  <rect class="fil0" x="-0" y="0" width="6.08" height="6.08" rx="1.03" ry="1.3"/>
  <path class="fil1 str0" d="M3.89 1.31c0.3,0 0.58,0.12 0.79,0.33 0.21,0.21 0.33,0.49 0.33,0.78 0,0.29 -0.12,0.58 -0.33,0.78l-1.51 1.51c-0.07,0.07 -0.18,0.07 -0.24,0l-1.51 -1.51c-0.43,-0.43 -0.43,-1.14 0,-1.57 0.43,-0.43 1.14,-0.43 1.57,0l0.06 0.06 0.06 -0.06c0.21,-0.21 0.49,-0.33 0.79,-0.33z"/>
 </g>
</svg>
