<?xml version="1.0" encoding="UTF-8"?>
<!DOCTYPE svg PUBLIC "-//W3C//DTD SVG 1.1//EN" "http://www.w3.org/Graphics/SVG/1.1/DTD/svg11.dtd">
<!-- Creator: CorelDRAW -->
<svg xmlns="http://www.w3.org/2000/svg" xml:space="preserve" width="2.7092mm" height="2.7092mm" version="1.1" style="shape-rendering:geometricPrecision; text-rendering:geometricPrecision; image-rendering:optimizeQuality; fill-rule:evenodd; clip-rule:evenodd"
viewBox="0 0 37.85 37.85"
 xmlns:xlink="http://www.w3.org/1999/xlink">
 <defs>
  <style type="text/css">
   <![CDATA[
    .fil1 {fill:#523EC7}
    .fil0 {fill:#DBD3F9}
   ]]>
  </style>
 </defs>
 <g id="Capa_x0020_1">
  <metadata id="CorelCorpID_0Corel-Layer"/>
  <path class="fil0" d="M6.41 0l25.02 0c3.54,0 6.41,3.63 6.41,8.1l0 21.65c-0,4.47 -2.87,8.09 -6.41,8.09l-25.02 0.01c-3.54,-0.01 -6.41,-3.63 -6.41,-8.1l-0.01 -21.64c0.01,-4.47 2.88,-8.1 6.42,-8.1z"/>
  <path class="fil1" d="M27.68 22.82c0.55,0 0.99,0.45 0.99,0.99l0 0 0 2.93c0,1.64 -1.29,2.93 -2.93,2.93l0 0 -13.64 0c-1.64,0 -2.93,-1.29 -2.93,-2.93l0 0 0 -2.93c0,-0.55 0.45,-0.99 0.99,-0.99 0.55,0 0.99,0.45 0.99,0.99l0 0 0 2.93c0,0.55 0.45,0.99 0.99,0.99l0 0 13.65 0c0.54,0 0.99,-0.45 0.99,-0.99l0 0 0 -2.93c0,-0.55 0.45,-0.99 0.99,-0.99l-0.1 0zm-8.78 -14.64c0.55,0 0.99,0.45 0.99,0.99l0 0 0 11.31 2.23 -2.23c0.35,-0.35 0.89,-0.4 1.29,-0.1l0.1 0.1c0.4,0.4 0.4,0.99 0,1.39l0 0 -3.92 3.92c0,0 0,0 0,0 0,0 -0.05,0.05 -0.05,0.05 0,0 0,0 -0.05,0 -0.05,0 -0.05,0.05 -0.1,0.05 0,0 0,0 0,0 -0.05,0 -0.05,0.05 -0.1,0.05 0,0 0,0 -0.05,0 0,0 -0.05,0 -0.05,0 -0.2,0.05 -0.4,0.05 -0.6,0 0,0 -0.05,0 -0.05,0 0,0 -0.05,0 -0.05,0 0,0 -0.05,0 -0.05,-0.05 0,0 0,0 -0.05,0 -0.05,0 -0.05,-0.05 -0.1,-0.05 -0.05,-0.05 -0.05,-0.05 -0.1,-0.1l0.1 0.1c-0.05,0 -0.05,-0.05 -0.1,-0.05l0 0 -3.92 -3.92c-0.4,-0.4 -0.4,-0.99 0,-1.39 0.4,-0.4 0.99,-0.4 1.39,0l0 0 2.23 2.23 0 -11.31c0,-0.5 0.35,-0.89 0.84,-0.94l0.1 0 0.06 -0.05z"/>
 </g>
</svg>
