<?xml version="1.0" encoding="UTF-8"?>
<!DOCTYPE svg PUBLIC "-//W3C//DTD SVG 1.1//EN" "http://www.w3.org/Graphics/SVG/1.1/DTD/svg11.dtd">
<!-- Creator: CorelDRAW -->
<svg xmlns="http://www.w3.org/2000/svg" xml:space="preserve" width="1.6934mm" height="1.6932mm" version="1.1" style="shape-rendering:geometricPrecision; text-rendering:geometricPrecision; image-rendering:optimizeQuality; fill-rule:evenodd; clip-rule:evenodd"
viewBox="0 0 1.88 1.88"
 xmlns:xlink="http://www.w3.org/1999/xlink">
 <defs>
  <style type="text/css">
   <![CDATA[
    .fil0 {fill:none}
    .fil1 {fill:white}
   ]]>
  </style>
 </defs>
 <g id="Capa_x0020_1">
  <metadata id="CorelCorpID_0Corel-Layer"/>
  <g id="_105555607634528">
   <rect id="Rectangle-Copy-9" class="fil0" x="0.03" y="0" width="1.82" height="1.88"/>
   <path id="icon-twitter" class="fil1" d="M1.82 0.1c-0.07,0.05 -0.16,0.09 -0.24,0.11 -0.07,-0.09 -0.17,-0.14 -0.28,-0.14 -0.21,0 -0.38,0.2 -0.38,0.44 0,0.03 0,0.07 0.01,0.1 -0.32,-0.02 -0.6,-0.19 -0.79,-0.46 -0.03,0.07 -0.05,0.14 -0.05,0.22 0,0.15 0.07,0.29 0.17,0.37 -0.06,-0 -0.12,-0.02 -0.17,-0.06l0 0.01c0,0.21 0.13,0.39 0.31,0.43 -0.03,0.01 -0.07,0.02 -0.1,0.02 -0.02,0 -0.05,-0 -0.07,-0.01 0.05,0.17 0.19,0.3 0.36,0.31 -0.13,0.12 -0.3,0.19 -0.48,0.19 -0.03,0 -0.06,-0 -0.09,-0.01 0.17,0.13 0.37,0.2 0.59,0.2 0.71,0 1.1,-0.67 1.1,-1.25 0,-0.02 -0,-0.04 -0,-0.06 0.08,-0.06 0.14,-0.14 0.19,-0.23 -0.07,0.04 -0.14,0.06 -0.22,0.07 0.08,-0.05 0.14,-0.14 0.17,-0.24z"/>
  </g>
 </g>
</svg>
