<?xml version="1.0" encoding="UTF-8"?>
<!DOCTYPE svg PUBLIC "-//W3C//DTD SVG 1.1//EN" "http://www.w3.org/Graphics/SVG/1.1/DTD/svg11.dtd">
<!-- Creator: CorelDRAW -->
<svg xmlns="http://www.w3.org/2000/svg" xml:space="preserve" width="2.7093mm" height="2.7095mm" version="1.1" style="shape-rendering:geometricPrecision; text-rendering:geometricPrecision; image-rendering:optimizeQuality; fill-rule:evenodd; clip-rule:evenodd"
viewBox="0 0 56.68 56.68"
 xmlns:xlink="http://www.w3.org/1999/xlink">
 <defs>
  <style type="text/css">
   <![CDATA[
    .str0 {stroke:#523EC7;stroke-width:2.21;stroke-miterlimit:22.9256}
    .fil1 {fill:none}
    .fil0 {fill:white}
   ]]>
  </style>
 </defs>
 <g id="Capa_x0020_1">
  <metadata id="CorelCorpID_0Corel-Layer"/>
  <g id="_105553514849344">
   <rect class="fil0" x="-0" y="-0" width="56.68" height="56.68" rx="10.23" ry="11.51"/>
   <path class="fil1 str0" d="M34.46 15.89c2.15,0 4.17,0.85 5.67,2.35 1.5,1.5 2.35,3.52 2.35,5.67 0,2.15 -0.85,4.17 -2.35,5.67l-10.95 10.88c-0.46,0.45 -1.24,0.45 -1.76,0l-10.88 -10.88c-3.13,-3.13 -3.13,-8.21 0,-11.34 3.13,-3.13 8.21,-3.13 11.34,0l0.45 0.46 0.46 -0.46c1.5,-1.5 3.52,-2.35 5.67,-2.35z"/>
  </g>
 </g>
</svg>
