<?xml version="1.0" encoding="UTF-8"?>
<!DOCTYPE svg PUBLIC "-//W3C//DTD SVG 1.1//EN" "http://www.w3.org/Graphics/SVG/1.1/DTD/svg11.dtd">
<!-- Creator: CorelDRAW -->
<svg xmlns="http://www.w3.org/2000/svg" xml:space="preserve" width="2.7093mm" height="2.7095mm" version="1.1" style="shape-rendering:geometricPrecision; text-rendering:geometricPrecision; image-rendering:optimizeQuality; fill-rule:evenodd; clip-rule:evenodd"
viewBox="0 0 56.83 56.83"
 xmlns:xlink="http://www.w3.org/1999/xlink">
 <defs>
  <style type="text/css">
   <![CDATA[
    .fil1 {fill:#523EC7}
    .fil0 {fill:white}
   ]]>
  </style>
 </defs>
 <g id="Capa_x0020_1">
  <metadata id="CorelCorpID_0Corel-Layer"/>
  <rect class="fil0" x="-0" y="-0" width="56.83" height="56.83" rx="10.26" ry="11.54"/>
  <path class="fil1" d="M41.56 34.26c0.82,0 1.49,0.67 1.49,1.49l0 0 0 4.4c0,2.46 -1.94,4.4 -4.4,4.4l0 0 -20.49 0c-2.46,0 -4.4,-1.94 -4.4,-4.4l0 0 0 -4.4c0,-0.82 0.67,-1.49 1.49,-1.49 0.82,0 1.49,0.67 1.49,1.49l0 0 0 4.4c0,0.82 0.67,1.49 1.49,1.49l0 0 20.49 0c0.82,0 1.49,-0.67 1.49,-1.49l0 0 0 -4.4c0,-0.82 0.67,-1.49 1.49,-1.49l-0.15 0zm-13.19 -21.98c0.82,0 1.49,0.67 1.49,1.49l0 0 0 16.99 3.35 -3.35c0.52,-0.52 1.34,-0.59 1.94,-0.15l0.15 0.15c0.6,0.6 0.6,1.49 0,2.09l0 0 -5.89 5.89c0,0 0,0 0,0 0,0 -0.07,0.08 -0.07,0.08 0,0 0,0 -0.08,0 -0.08,0 -0.08,0.07 -0.15,0.07 0,0 0,0 0,0 -0.08,0 -0.08,0.08 -0.15,0.08 0,0 0,0 -0.08,0 0,0 -0.08,0 -0.08,0 -0.3,0.08 -0.6,0.08 -0.89,0 0,0 -0.08,0 -0.08,0 0,0 -0.08,0 -0.08,0 0,0 -0.07,0 -0.07,-0.08 0,0 0,0 -0.08,0 -0.08,0 -0.08,-0.07 -0.15,-0.07 -0.08,-0.08 -0.08,-0.08 -0.15,-0.15l0.15 0.15c-0.08,0 -0.08,-0.08 -0.15,-0.08l0 0 -5.89 -5.89c-0.6,-0.6 -0.6,-1.49 0,-2.09 0.6,-0.59 1.49,-0.59 2.09,0l0 0 3.35 3.35 0 -16.99c0,-0.74 0.52,-1.34 1.26,-1.41l0.15 0 0.08 -0.08z"/>
 </g>
</svg>
