<?xml version="1.0" encoding="UTF-8"?>
<!DOCTYPE svg PUBLIC "-//W3C//DTD SVG 1.1//EN" "http://www.w3.org/Graphics/SVG/1.1/DTD/svg11.dtd">
<!-- Creator: CorelDRAW -->
<svg xmlns="http://www.w3.org/2000/svg" xml:space="preserve" width="2.7092mm" height="2.7092mm" version="1.1" style="shape-rendering:geometricPrecision; text-rendering:geometricPrecision; image-rendering:optimizeQuality; fill-rule:evenodd; clip-rule:evenodd"
viewBox="0 0 37.93 37.93"
 xmlns:xlink="http://www.w3.org/1999/xlink">
 <defs>
  <style type="text/css">
   <![CDATA[
    .str0 {stroke:#523EC7;stroke-width:1.48;stroke-miterlimit:22.9256}
    .fil1 {fill:none}
    .fil0 {fill:#DBD3F9}
   ]]>
  </style>
 </defs>
 <g id="Capa_x0020_1">
  <metadata id="CorelCorpID_0Corel-Layer"/>
  <path class="fil0" d="M6.43 0l25.08 0c3.55,0 6.42,3.64 6.42,8.12l0 21.7c-0,4.48 -2.88,8.11 -6.43,8.11l-25.08 0.01c-3.54,-0.01 -6.42,-3.64 -6.42,-8.12l-0.01 -21.69c0.01,-4.48 2.88,-8.11 6.43,-8.11z"/>
  <path class="fil1 str0" d="M23.07 10.63c1.44,0 2.79,0.57 3.79,1.57 1,1 1.57,2.36 1.57,3.79 0,1.44 -0.57,2.79 -1.57,3.79l-7.33 7.28c-0.31,0.3 -0.83,0.3 -1.18,0l-7.28 -7.28c-2.09,-2.09 -2.09,-5.5 0,-7.59 2.09,-2.09 5.49,-2.09 7.59,0l0.3 0.31 0.31 -0.31c1,-1 2.36,-1.57 3.79,-1.57z"/>
 </g>
</svg>
