<?xml version="1.0" encoding="UTF-8"?>
<!DOCTYPE svg PUBLIC "-//W3C//DTD SVG 1.1//EN" "http://www.w3.org/Graphics/SVG/1.1/DTD/svg11.dtd">
<!-- Creator: CorelDRAW -->
<svg xmlns="http://www.w3.org/2000/svg" xml:space="preserve" width="2.7092mm" height="2.7092mm" version="1.1" style="shape-rendering:geometricPrecision; text-rendering:geometricPrecision; image-rendering:optimizeQuality; fill-rule:evenodd; clip-rule:evenodd"
viewBox="0 0 38.11 38.11"
 xmlns:xlink="http://www.w3.org/1999/xlink">
 <defs>
  <style type="text/css">
   <![CDATA[
    .fil1 {fill:#523EC7}
    .fil0 {fill:#DBD3F9}
   ]]>
  </style>
 </defs>
 <g id="Capa_x0020_1">
  <metadata id="CorelCorpID_0Corel-Layer"/>
  <path class="fil0" d="M6.46 0l25.2 0c3.56,0 6.45,3.65 6.45,8.16l0 21.8c-0,4.5 -2.89,8.15 -6.46,8.15l-25.19 0.01c-3.56,-0.01 -6.45,-3.66 -6.45,-8.16l-0.01 -21.79c0.01,-4.5 2.9,-8.15 6.46,-8.15z"/>
  <path class="fil1" d="M21.07 7.97c1.67,0 3.02,1.35 3.02,3.02l0 0 -0 1.01 4.03 0c0.51,0 0.94,0.39 1,0.88l0.01 0.13c0,0.56 -0.45,1.01 -1.01,1.01l0 0 -1.01 0 0 13.1c0,1.6 -1.25,2.91 -2.83,3.02l-0.2 0.01 -10.08 0c-1.67,0 -3.02,-1.35 -3.02,-3.02l0 0 0 -13.1 -1.01 0c-0.51,0 -0.94,-0.38 -1,-0.88l-0.01 -0.13c0,-0.56 0.45,-1.01 1.01,-1.01l0 0 4.03 0 0 -1.01c0,-1.6 1.25,-2.92 2.82,-3.02l0.2 -0.01 4.03 0zm4.03 6.05l-12.1 0 0 13.1c0,0.51 0.38,0.94 0.88,1l0.13 0.01 10.08 0c0.56,0 1.01,-0.45 1.01,-1.01l0 0 0 -13.1zm-8.06 3.02c0.56,0 1.01,0.45 1.01,1.01l0 0 0 6.05c0,0.56 -0.45,1.01 -1.01,1.01 -0.56,0 -1.01,-0.45 -1.01,-1.01l0 0 0 -6.05c0,-0.56 0.45,-1.01 1.01,-1.01zm4.03 0c0.56,0 1.01,0.45 1.01,1.01l0 0 0 6.05c0,0.56 -0.45,1.01 -1.01,1.01 -0.56,0 -1.01,-0.45 -1.01,-1.01l0 0 0 -6.05c0,-0.56 0.45,-1.01 1.01,-1.01zm0 -7.06l-4.03 0c-0.56,0 -1.01,0.45 -1.01,1.01l0 0 0 1.01 6.05 0 0 -1.01c0,-0.51 -0.39,-0.94 -0.88,-1l-0.13 -0.01z"/>
 </g>
</svg>
